<?xml version="1.0" encoding="UTF-8"?>
<svg id="Layer_1" xmlns="http://www.w3.org/2000/svg" version="1.1" viewBox="0 0 400 400">
  <!-- Generator: Adobe Illustrator 30.0.0, SVG Export Plug-In . SVG Version: 2.1.1 Build 123)  -->
  <defs>
    <style>
      .st0 {
        fill: #fff;
      }

      .st1 {
        fill: #231f20;
      }

      .st2 {
        fill: #e43031;
      }
    </style>
  </defs>
  <polygon class="st0" points="177.5 141.5 177.5 130.2 202.7 109.4 202.7 76 182.5 59.8 154.2 83 154.2 76.2 133.7 59.8 115.8 74.5 97.9 59.7 68.6 83.8 52.5 123.9 67.7 111.4 67.7 146.7 86.1 161.7 89.3 164.4 103.6 152.7 103.6 170.3 128.8 149.6 128.8 170.3 152.3 151 152.3 162.3 63.9 234.9 63.9 305.2 179.4 400 294.9 305 294.9 243.1 321.5 221.2 321.5 160.6 349.7 137.4 349.7 0 177.5 141.5"/>
  <polygon class="st1" points="104.8 325.7 339.6 132.7 339.6 83.2 74.7 301 104.8 325.7"/>
  <polygon class="st2" points="311.5 167 311.5 216.5 141.7 356.1 111.6 331.3 311.5 167"/>
  <polygon class="st2" points="339.6 72 339.6 21.2 73.9 239.6 73.9 290.5 339.6 72"/>
  <polygon class="st1" points="148.5 361.6 179.4 387 284.9 300.3 284.9 249.5 148.5 361.6"/>
  <path class="st1" d="M172.5,79.9v32.4l-1.4,1.1v-34.7l1.4,1.1h0ZM87.9,80.5l-1.3-1.1v53.7l1.4,1.1v-53.7ZM96.3,86.6l13.2-10.8,1,.8-13.2,10.9-1.1-.8ZM147.8,77.5l1.4,1.1v52.2l-1.4,1.2v-54.5ZM73.5,100.1l-8.1,6.6,1-2.6,10.3-8.5-3.3,4.4ZM124,80.5v31.4l-1.4,1.2v-33.7l1.4,1.2ZM197.7,78.4v28.6l-25.2,20.8v18.1l-14.9,12.3v-1.8l13.5-11.1v-18.1l25.3-20.8v-29.2l1.4,1.1ZM157.6,140.1l-23.6,19.4v-1.7l27-22.2-3.4,4.5ZM132.3,122.5l-8.2,6.7v17.8l-15.2,12.4v-1.7l13.8-11.3v-17.8l9.6-7.9v1.7ZM157.3,143.1l12.7-16.9v18.1l-12.7,10.4v-11.7ZM108.6,143.4l13-15.8v17.8l-13,10.6v-12.6ZM182.5,66.2l-25.3,20.7v39.3l-10.6,8.7v-58.3l-13-10.4-25.2,20.7v39.6l-16.2,13.3-6.9-5.7v-47.5l-12.7,17.1v40.6l14.3,11.7,46.8-38.5v38.5l61.5-50.6v-29l-12.7-10.2ZM170,76.5l12.3,9.6v19.6l-12.3,10.1v-39.3ZM121.5,76.6h.3l12,9.9v19.3l-12.2,10v-39.3ZM85.4,76.5v10.1l-12.7,10.4-6.1,5,6.1-15.2,25.1-20.7,10.4,8.5-12.4,10.1-10.5-8.3ZM110.6,138.6l-22.3,18.4,1,.9,16.8-13.8,4.5-5.5Z"/>
</svg>