<?xml version="1.0" encoding="UTF-8"?>
<svg id="Camada_1" xmlns="http://www.w3.org/2000/svg" version="1.1" viewBox="0 0 400 400">
  <!-- Generator: Adobe Illustrator 30.1.0, SVG Export Plug-In . SVG Version: 2.1.1 Build 136)  -->
  <defs>
    <style>
      .st0 {
        fill: #fdc500;
      }

      .st0, .st1 {
        fill-rule: evenodd;
      }
    </style>
  </defs>
  <path class="st0" d="M76.98,270.07c-9.92,0-13.33-1.22-20.42-8.31l-46.25-46.31c-6.05-6.05-5.54-15.2.39-21.19,41.54-41.74,73.88-74.07,115.62-115.62,5.93-5.93,15.07-6.44,21.19-.39l46.31,46.25c2.96,2.96,4.9,5.28,6.18,7.73,1.29-2.45,3.22-4.77,6.18-7.73l46.31-46.25c6.05-6.05,15.2-5.54,21.19.39,41.74,41.54,74.07,73.88,115.62,115.62,5.93,5.93,6.44,15.07.39,21.19l-46.25,46.31c-7.09,7.09-10.5,8.31-20.42,8.31H76.98"/>
  <path class="st1" d="M240.13,251.27h82.83c.97,0,3.16.06,4.19-.13.84-.52,2.25-2,2.9-2.64l43.35-43.41-43.41-43.61-89.85,89.85h0v-.06h0ZM213.33,262.34h109.63c7.79,0,9.34-.45,14.94-6.05l46.25-46.31c2.83-2.83,2.77-7.15-.39-10.31l-48.18-48.44c-2.71-2.71-7.99-3.09-11.34.26l-110.91,110.85h0Z"/>
  <path class="st1" d="M216.62,227.76v-82.83c0-.97-.06-3.16.13-4.19.52-.84,2-2.25,2.64-2.9l43.41-43.35,43.61,43.41-89.85,89.85h.06,0ZM205.47,254.55v-109.63c0-7.79.45-9.34,6.05-14.94l46.31-46.25c2.83-2.83,7.15-2.77,10.31.39l48.44,48.18c2.71,2.71,3.09,7.99-.26,11.34l-110.85,110.91Z"/>
  <path class="st1" d="M159.81,251.27h-82.83c-.97,0-3.16.06-4.19-.13-.84-.52-2.25-2-2.9-2.64l-43.35-43.41,43.41-43.61,89.85,89.85h0v-.06h0ZM186.6,262.34h-109.63c-7.79,0-9.34-.45-14.94-6.05l-46.25-46.31c-2.83-2.83-2.77-7.15.39-10.31l48.18-48.44c2.71-2.71,7.99-3.09,11.34.26l110.91,110.85h0Z"/>
  <path class="st1" d="M183.32,227.76v-82.83c0-.97.06-3.16-.13-4.19-.52-.84-2-2.25-2.64-2.9l-43.41-43.35-43.61,43.41,89.85,89.85h-.06,0ZM194.4,254.55v-109.63c0-7.79-.45-9.34-6.05-14.94l-46.31-46.25c-2.83-2.83-7.15-2.77-10.31.39l-48.44,48.18c-2.71,2.71-3.09,7.99.26,11.34l110.85,110.91Z"/>
  <path d="M33.37,326.05c5.02,0,9.79-1.35,14.23-3.86l-1.8-12.04h-.45c-3.16,2.77-6.83,4.32-10.43,4.32-6.18,0-10.18-4.32-10.18-11.08s3.93-10.95,9.98-10.95,7.28,1.42,10.37,4.25h.52l1.74-11.98c-4.38-2.51-9.08-3.86-14.11-3.86-12.62,0-21.96,8.89-21.96,22.8s8.89,22.41,22.03,22.41"/>
  <path d="M68.67,292.04c3.67,0,5.54,1.55,5.54,4.51s-1.67,4.44-5.54,4.44h-3.48v-9.02h3.48v.06ZM79.17,307.82c4.44-2.06,6.96-5.99,6.96-11.53,0-9.47-5.6-14.23-17.07-14.23h-16.49v42.77h12.5v-14.81h1.93l9.6,14.81h13.2l.52-1.09-11.14-15.91h0Z"/>
  <rect x="91.66" y="282.05" width="12.5" height="42.77"/>
  <path d="M130.31,326.05c5.02,0,9.79-1.35,14.23-3.86l-1.8-12.04h-.45c-3.16,2.77-6.83,4.32-10.43,4.32-6.18,0-10.18-4.32-10.18-11.08s3.93-10.95,9.98-10.95,7.28,1.42,10.37,4.25h.52l1.74-11.98c-4.44-2.51-9.08-3.86-14.11-3.86-12.62,0-21.96,8.89-21.96,22.8s8.89,22.41,22.03,22.41"/>
  <rect x="149.5" y="282.05" width="12.5" height="42.77"/>
  <path d="M222.54,324.82v-14.75c0-4.06-.13-8.37-.32-12.5h.26c1.61,3.35,3.35,6.76,5.09,10.11l6.57,13.08h1.09l6.63-13.08c1.67-3.35,3.48-6.7,5.09-10.11h.26c-.19,4.12-.32,8.44-.32,12.5v14.75h12.24v-42.77h-14.94l-9.34,19.45h-.19l-9.47-19.45h-14.94v42.77h12.3Z"/>
  <path d="M280.32,305.05c.64-2.64,1.93-7.92,2.58-12.56h.19c.58,4.64,1.87,9.92,2.58,12.56l1.35,4.64h-7.99l1.29-4.64h0ZM275.55,282.05l-14.81,42.51.26.32h13.78l1.87-6.63h12.75l1.87,6.63h13.91l.32-.32-14.56-42.51h-15.39,0Z"/>
  <polygon points="348.34 307.43 348.34 298.93 334.17 298.93 334.17 292.68 350.33 292.68 349.17 282.05 321.67 282.05 321.67 324.82 349.17 324.82 350.33 314.19 334.17 314.19 334.17 307.43 348.34 307.43"/>
  <path d="M374.23,326.05c5.02,0,9.79-1.35,14.23-3.86l-1.8-12.04h-.45c-3.16,2.77-6.83,4.32-10.43,4.32-6.18,0-10.18-4.32-10.18-11.08s3.93-10.95,9.98-10.95,7.28,1.42,10.37,4.25h.52l1.74-11.98c-4.38-2.51-9.08-3.86-14.11-3.86-12.62,0-21.96,8.89-21.96,22.8s8.89,22.41,22.03,22.41"/>
  <path d="M186.15,326.05c12.69,0,18.94-7.15,18.94-20.35v-23.64h-12.5v22.87c0,7.09-1.93,9.66-6.44,9.66s-6.44-2.58-6.44-9.6v-22.93h-12.5v23.64c0,13.65,5.73,20.35,18.94,20.35M187.57,278.58l7.54-7.54-.39-.52h-9.92l-5.15,8.12h7.86l.06-.06h0Z"/>
</svg>